# xmcd
#
# Track frame offsets: 
#        150
#        22014
#        39629
#        55767
#        71725
#        87039
#        112411
#        131010
#        149683
#        171770
#        185203
#        205986
#        226232
#        248553
#        268020
#        281387
#
# Disc length: 4073 seconds
#
# Revision: 6
# Processed by: cddbd v1.5.2PL0 Copyright (c) Steve Scherf et al.
# Submitted via: ExactAudioCopyFreeDBPlugin 1.0
#
DISCID=f50fe710
DTITLE=Various Artist - Ultimate 80's Collection Vol 2
DYEAR=1989
DGENRE=Rock
TTITLE0=Stars on 45 - Stars on 45
TTITLE1=S'Express - Theme From S'Express
TTITLE2=Mondo Rock - Cool World
TTITLE3=Earth Wind and Fire - Lets Groove
TTITLE4=Marvin Gaye - Sexual Healing
TTITLE5=Loverboy - Turn Me Loose
TTITLE6=NKOTB - You Got It (The Right Stuff)
TTITLE7=Party Boys - He's Gonna Step On You Again
TTITLE8=Stacey Q - Two Of Hearts
TTITLE9=Collette - Ring My Bell
TTITLE10=Terence Trent D'arby - Sign Your Name
TTITLE11=Alice Cooper - Poison
TTITLE12=Toto - Africa
TTITLE13=Redgum - I Was Only 19
TTITLE14=The Allnighters - Montego Bay
TTITLE15=Ellen Foley - We Belong To The Night
EXTD=YEAR: 1989
EXTT0=
EXTT1=
EXTT2=
EXTT3=
EXTT4=
EXTT5=
EXTT6=
EXTT7=
EXTT8=
EXTT9=
EXTT10=
EXTT11=
EXTT12=
EXTT13=
EXTT14=
EXTT15=
PLAYORDER=
